# xmcd CD database file
#
# Track frame offsets:
#	150
#	22479
#	45591
#	65104
#	86332
#	107822
#
# Disc length: 1600 seconds
#
# Revision: 0
# Processed by: cddbd v1.5.1PL0 Copyright (c) Steve Scherf et al.
# Submitted via: CDex 1.51
#
DISCID=50063e06
DTITLE=SOLT - 新芽
DYEAR=2004
DGENRE=JPop
TTITLE0=春はすぐそばに
TTITLE1=ありがとう
TTITLE2=ハンカチ
TTITLE3=声をなくして
TTITLE4=坂道
TTITLE5=声をなくして -ピアノ-
EXTD=YEAR: 2004
EXTT0=
EXTT1=
EXTT2=
EXTT3=
EXTT4=
EXTT5=
PLAYORDER=
